<svg xmlns="http://www.w3.org/2000/svg" width="95" height="27" viewBox="0 0 95 27"><defs><clipPath id="kg4ea"><path d="M0 .19h4.99V26H0z"/></clipPath><clipPath id="kg4eb"><path d="M9.13.19h4.782v4.782H9.13z"/></clipPath><clipPath id="kg4ec"><path d="M9.13 7.17h4.782v18.834H9.13z"/></clipPath><clipPath id="kg4ed"><path d="M62.1.19h4.782V26H62.1z"/></clipPath><clipPath id="kg4ee"><path d="M71.03.19h4.782v4.782H71.03z"/></clipPath><clipPath id="kg4ef"><path d="M71.03 7.17h4.782v18.834H71.03z"/></clipPath><clipPath id="kg4eg"><path d="M16.07 2.18h11.764v23.822H16.07z"/></clipPath><clipPath id="kg4eh"><path d="M31.08 7.17h14.785v18.833H31.08z"/></clipPath><clipPath id="kg4ei"><path d="M79.08 7.17h15.822v18.834H79.08z"/></clipPath></defs><g><g><g><g><g/><g clip-path="url(#kg4ea)"><path fill="red" d="M4.165 26H.825C.275 26 0 25.745 0 25.23V.96C0 .448.275.19.825.19h3.34c.55 0 .825.257.825.77v24.27c0 .514-.275.77-.825.77"/></g></g><g><g/><g clip-path="url(#kg4eb)"><path fill="red" d="M9.13 4.22V.942c0-.502.25-.753.753-.753h3.276c.502 0 .753.239.753.715V4.22c0 .503-.25.753-.753.753H9.883c-.502 0-.753-.25-.753-.753"/></g></g><g><g/><g clip-path="url(#kg4ec)"><path fill="red" d="M9.13 25.228V7.946c0-.517.25-.776.753-.776h3.238c.528 0 .792.259.792.776v17.282c0 .32-.057.53-.17.628-.113.099-.308.148-.584.148H9.921c-.528 0-.791-.26-.791-.776"/></g></g><g><g/><g clip-path="url(#kg4ed)"><path fill="red" d="M66.091 26h-3.2c-.528 0-.791-.256-.791-.77V.96c0-.513.263-.77.79-.77h3.201c.528 0 .792.257.792.77v24.27c0 .514-.264.77-.792.77"/></g></g><g><g/><g clip-path="url(#kg4ee)"><path fill="red" d="M71.03 4.22V.942c0-.502.25-.753.753-.753h3.276c.502 0 .753.239.753.715V4.22c0 .503-.25.753-.753.753h-3.276c-.503 0-.753-.25-.753-.753"/></g></g><g><g/><g clip-path="url(#kg4ef)"><path fill="red" d="M71.03 25.228V7.946c0-.517.25-.776.753-.776h3.238c.528 0 .791.259.791.776v17.282c0 .32-.056.53-.17.628-.112.099-.307.148-.583.148h-3.238c-.528 0-.791-.26-.791-.776"/></g></g><g><g/><g clip-path="url(#kg4eg)"><path fill="red" d="M18.312 11.043h-1.47c-.294 0-.496-.05-.606-.15-.11-.098-.166-.298-.166-.598v-2.58c0-.524.257-.785.772-.785h1.47c.27 0 .405-.137.405-.412V2.966c0-.524.27-.786.809-.786h3.088c.514 0 .772.262.772.786v3.552c0 .275.147.412.441.412h2.868c.514 0 .772.261.772.785v2.58c0 .275-.055.468-.166.58-.11.112-.312.169-.606.169h-2.868c-.294 0-.441.137-.441.411v8.265c0 .773.17 1.328.515 1.664.342.337.906.505 1.69.505h1.471c.515 0 .772.261.772.785v2.58c0 .275-.055.468-.165.58-.11.112-.313.168-.607.168H24.82c-1.936 0-3.437-.523-4.503-1.57-1.066-1.047-1.6-2.543-1.6-4.488v-8.489c0-.274-.134-.412-.404-.412"/></g></g><g><path fill="red" d="M49.287 10.817c.275 0 .413-.138.413-.414v-2.3c0-1.959.544-3.466 1.631-4.52C52.418 2.527 53.95 2 55.925 2h2.288c.3 0 .506.057.618.17.113.113.169.307.169.584v2.6c0 .527-.263.79-.787.79h-1.5c-.8 0-1.376.17-1.725.509-.351.339-.526.897-.526 1.676v2.073c0 .277.15.415.45.415h2.926c.3 0 .506.057.619.17.112.113.169.307.169.584v2.6c0 .527-.263.79-.788.79h-2.925c-.3 0-.45.139-.45.415v9.833c0 .527-.263.791-.788.791h-3.15c-.55 0-.825-.264-.825-.791v-9.833c0-.276-.138-.414-.413-.414h-1.5c-.524 0-.787-.264-.787-.792v-2.6c0-.3.056-.502.169-.602.112-.1.319-.15.618-.15z"/></g><g><g/><g clip-path="url(#kg4eh)"><path fill="red" d="M36.033 18.655c-.29 0-.435.135-.435.406v.812c0 .764.163 1.311.489 1.644.325.332.873.498 1.644.498h7.303c.506 0 .759.271.759.812v2.437c0 .272-.054.462-.163.573-.108.11-.307.166-.596.166h-7.99c-1.904 0-3.374-.517-4.41-1.55-1.036-1.035-1.554-2.524-1.554-4.469V13.19c0-1.944.518-3.434 1.554-4.468 1.036-1.034 2.506-1.551 4.41-1.551h2.857c1.903 0 3.374.517 4.41 1.551 1.036 1.034 1.554 2.524 1.554 4.468v4.69c0 .517-.253.776-.759.776zm-.398-3.545c0 .271.132.406.398.406h4.925c.266 0 .399-.135.399-.406v-1.773c0-.788-.158-1.341-.471-1.662-.314-.32-.858-.48-1.63-.48h-1.52c-.774 0-1.317.16-1.63.48-.315.32-.471.874-.471 1.662z"/></g></g><g><g/><g clip-path="url(#kg4ei)"><path fill="red" d="M83.485 26.004H79.74c-.643 0-.816-.26-.52-.776l4.672-8.826-4.671-8.456c-.248-.517-.1-.776.445-.776h3.782c.593 0 .976.259 1.149.776l2.336 5.613h.148l2.04-5.613c.172-.517.556-.776 1.149-.776h3.708c.642 0 .803.259.482.776l-4.45 8.456 4.783 8.826c.124.222.142.406.056.554-.087.148-.254.222-.5.222h-3.82c-.518 0-.89-.26-1.112-.776l-2.336-5.65h-.148l-2.336 5.65c-.173.517-.544.776-1.112.776"/></g></g></g></g></g></svg>