<svg xmlns="http://www.w3.org/2000/svg" width="25" height="25" viewBox="0 0 25 25"><g><g><path fill="#ce00ff" d="M12.5 25C19.404 25 25 19.404 25 12.5S19.404 0 12.5 0 0 5.596 0 12.5 5.596 25 12.5 25z"/></g><g><path fill="#f5a623" d="M6.38 8.483l5.844-3.374a.81.81 0 0 1 .811 0l5.837 3.37-3.534 1.999-2.465-1.423a.488.488 0 0 0-.487 0L9.9 10.491zm12.88.577v6.83c0 .289-.155.557-.406.702L12.95 20v-4.04l2.567-1.482a.487.487 0 0 0 .243-.421v-3.013zm-6.955 6.898v4.04l-5.9-3.406A.811.811 0 0 1 6 15.889V9.062l3.499 1.984v3.01c0 .174.092.335.243.422l2.563 1.48z"/></g></g></svg>