<svg xmlns="http://www.w3.org/2000/svg" width="16" height="15" viewBox="0 0 16 15"><g><g><path fill="none" stroke="#fff" stroke-miterlimit="50" d="M13.434 10.928v0h-.018a1.042 1.042 0 0 1-.774-.994v-2.64-.009l.002-.147c0-2.521-2.123-4.565-4.741-4.565-2.62 0-4.742 2.044-4.742 4.565l.001.092-.001.064v2.64c0 .472-.327.87-.775.994h-.018c-.755 0-1.368.59-1.368 1.318 0 .727.613 1.317 1.368 1.317h11.066c.756 0 1.368-.59 1.368-1.317 0-.728-.612-1.318-1.368-1.318"/></g><g><path fill="none" stroke="#fff" stroke-miterlimit="50" d="M8 2.547c.552 0 1-.43 1-.96s-.448-.96-1-.96-1 .43-1 .96.448.96 1 .96z"/></g></g></svg>