<svg xmlns="http://www.w3.org/2000/svg" width="22" height="22" viewBox="0 0 22 22"><g><g><path fill="#0076ff" d="M19.743 13.885L9.95 4.981c-1.11-1.009-2.91-1.009-4.019 0-1.11 1.009-1.11 2.644 0 3.653l8.54 7.763.501-.457-8.539-7.762c-.832-.757-.832-1.984 0-2.74.833-.757 2.182-.757 3.014 0l9.795 8.904c1.387 1.26 1.387 3.306 0 4.566-1.387 1.262-3.636 1.262-5.023 0L3.168 8.863c-1.943-1.766-1.943-4.628 0-6.394C5.108.704 8.257.704 10.2 2.47l8.539 7.763.502-.456-8.54-7.763c-2.219-2.018-5.818-2.017-8.037 0-2.22 2.019-2.219 5.29.001 7.308l11.05 10.044c1.665 1.513 4.364 1.513 6.028 0 1.665-1.513 1.665-3.966 0-5.48"/><path fill="none" stroke="#0076ff" stroke-miterlimit="50" d="M19.743 13.885v0L9.95 4.981c-1.11-1.009-2.91-1.009-4.019 0-1.11 1.009-1.11 2.644 0 3.653l8.54 7.763v0l.501-.457v0L6.432 8.178c-.832-.757-.832-1.984 0-2.74.833-.757 2.182-.757 3.014 0l9.795 8.904c1.387 1.26 1.387 3.306 0 4.566-1.387 1.262-3.636 1.262-5.023 0L3.168 8.863c-1.943-1.766-1.943-4.628 0-6.394C5.108.704 8.257.704 10.2 2.47l8.539 7.763v0l.502-.456v0l-8.54-7.763c-2.219-2.018-5.818-2.017-8.037 0-2.22 2.019-2.219 5.29.001 7.308l11.05 10.044c1.665 1.513 4.364 1.513 6.028 0 1.665-1.513 1.665-3.966 0-5.48"/></g></g></svg>